<svg width="25" height="25" viewBox="0 0 25 25" fill="none" xmlns="http://www.w3.org/2000/svg">
<g id="north-star-24">
<path id="Union" d="M11.9551 1.63672C11.9551 1.22251 12.2909 0.886719 12.7051 0.886719C13.1193 0.886719 13.4551 1.22251 13.4551 1.63672V10.326L18.0084 5.77274C18.3013 5.47985 18.7761 5.47985 19.069 5.77274C19.3619 6.06564 19.3619 6.54051 19.069 6.8334L14.5157 11.3867H23.2051C23.6193 11.3867 23.9551 11.7225 23.9551 12.1367C23.9551 12.5509 23.6193 12.8867 23.2051 12.8867H14.5157L19.069 17.44C19.3619 17.7329 19.3619 18.2078 19.069 18.5007C18.7761 18.7936 18.3013 18.7936 18.0084 18.5007L13.4551 13.9474V22.6367C13.4551 23.0509 13.1193 23.3867 12.7051 23.3867C12.2909 23.3867 11.9551 23.0509 11.9551 22.6367V13.9474L7.40177 18.5007C7.10887 18.7936 6.634 18.7936 6.34111 18.5007C6.04821 18.2078 6.04821 17.7329 6.34111 17.44L10.8944 12.8867H2.20508C1.79086 12.8867 1.45508 12.5509 1.45508 12.1367C1.45508 11.7225 1.79086 11.3867 2.20508 11.3867H10.8944L6.3411 6.83342C6.04821 6.54053 6.04821 6.06565 6.3411 5.77276C6.63399 5.47987 7.10887 5.47987 7.40176 5.77276L11.9551 10.3261V1.63672Z" fill="#1F1F1F"/>
</g>
</svg>
