<svg width="12" height="11" viewBox="0 0 12 11" fill="none" xmlns="http://www.w3.org/2000/svg">
<g id="north-star-24">
<path id="Union" d="M5.69194 0.829948C5.69194 0.651498 5.83787 0.506836 6.01789 0.506836C6.19791 0.506836 6.34385 0.651498 6.34385 0.829948V4.57345L8.32274 2.61182C8.45004 2.48563 8.65642 2.48563 8.78371 2.61182C8.91101 2.738 8.91101 2.94258 8.78371 3.06876L6.80481 5.03041H10.5813C10.7613 5.03041 10.9072 5.17507 10.9072 5.35352C10.9072 5.53197 10.7613 5.67663 10.5813 5.67663H6.80481L8.78371 7.63827C8.911 7.76445 8.911 7.96904 8.78371 8.09522C8.65642 8.2214 8.45003 8.2214 8.32274 8.09522L6.34385 6.13359V9.87709C6.34385 10.0555 6.19791 10.2002 6.01789 10.2002C5.83787 10.2002 5.69194 10.0555 5.69194 9.87709V6.13357L3.71303 8.09521C3.58574 8.2214 3.37936 8.2214 3.25206 8.09521C3.12477 7.96903 3.12477 7.76445 3.25206 7.63826L5.23096 5.67663H1.45452C1.2745 5.67663 1.12856 5.53197 1.12856 5.35352C1.12856 5.17507 1.2745 5.03041 1.45452 5.03041H5.23096L3.25206 3.06877C3.12477 2.94259 3.12477 2.73801 3.25206 2.61182C3.37935 2.48564 3.58574 2.48564 3.71303 2.61182L5.69194 4.57347V0.829948Z" fill="#A95454"/>
</g>
</svg>
